<svg width="78" height="23" viewBox="0 0 78 23" fill="none" xmlns="http://www.w3.org/2000/svg">
<g clip-path="url(#clip0_376_715)">
<path d="M10 8H16.5C17.4849 8 18.4602 8.17581 19.3701 8.51738C20.2801 8.85896 21.1069 9.35961 21.8033 9.99076C22.4997 10.6219 23.0522 11.3712 23.4291 12.1958C23.806 13.0205 24 13.9043 24 14.7969V18.3125H17.25V18.3318C16.7853 18.3318 16.3251 18.419 15.8957 18.5884C15.4664 18.7578 15.0763 19.006 14.7476 19.3191C14.419 19.6321 14.1584 20.0037 13.9805 20.4126C13.8698 20.6672 13.7926 20.9331 13.75 21.2044V23H10V21.7026C10 20.7957 10.1875 19.8977 10.5519 19.0599C10.9162 18.222 11.4503 17.4608 12.1235 16.8195C12.7967 16.1783 13.5959 15.6696 14.4755 15.3225C15.2781 15.0059 16.1332 14.8295 17 14.801V14.7969H20.1609C20.1609 14.3612 20.0662 13.9298 19.8822 13.5273C19.6982 13.1247 19.4286 12.759 19.0886 12.4509C18.7487 12.1428 18.3451 11.8985 17.901 11.7317C17.6245 11.628 17.3357 11.5555 17.041 11.5156H14.25V13.7284C13.7284 13.8154 13.2171 13.9567 12.7255 14.1507C11.8459 14.4977 11.0467 15.0064 10.3735 15.6476C10.2437 15.7712 10.1192 15.8992 10 16.0314V8Z" fill="#205CD0"/>
<path d="M31.2414 23V14.7632H29.6286V13.4768H31.2414V12.056C31.2414 11.4032 31.3054 10.8848 31.4334 10.5008C31.5614 10.1168 31.811 9.848 32.1822 9.6944C32.5534 9.528 33.091 9.4448 33.795 9.4448H34.8318V10.808H33.8334C33.4238 10.808 33.155 10.8912 33.027 11.0576C32.9118 11.224 32.8542 11.5504 32.8542 12.0368V13.4768H34.8318V14.7632H32.8542V23H31.2414ZM40.1898 23.2304C39.6394 23.2304 39.0954 23.1344 38.5578 22.9424C38.0202 22.7504 37.5274 22.456 37.0794 22.0592C36.6442 21.6496 36.2922 21.1312 36.0234 20.504C35.7546 19.8768 35.6202 19.1344 35.6202 18.2768C35.6202 17.4192 35.7546 16.6768 36.0234 16.0496C36.2922 15.4224 36.6442 14.9104 37.0794 14.5136C37.5274 14.104 38.0202 13.8032 38.5578 13.6112C39.0954 13.4192 39.6394 13.3232 40.1898 13.3232C40.7402 13.3232 41.2842 13.4192 41.8218 13.6112C42.3722 13.8032 42.865 14.104 43.3002 14.5136C43.7482 14.9104 44.1002 15.4224 44.3562 16.0496C44.625 16.6768 44.7594 17.4192 44.7594 18.2768C44.7594 19.1344 44.625 19.8768 44.3562 20.504C44.1002 21.1312 43.7482 21.6496 43.3002 22.0592C42.865 22.456 42.3722 22.7504 41.8218 22.9424C41.2842 23.1344 40.7402 23.2304 40.1898 23.2304ZM40.1898 21.8096C40.6506 21.8096 41.0986 21.688 41.5338 21.4448C41.969 21.1888 42.3274 20.8048 42.609 20.2928C42.8906 19.768 43.0314 19.096 43.0314 18.2768C43.0314 17.4576 42.8906 16.792 42.609 16.28C42.3274 15.7552 41.969 15.3712 41.5338 15.128C41.0986 14.872 40.6506 14.744 40.1898 14.744C39.7418 14.744 39.2938 14.872 38.8458 15.128C38.4106 15.3712 38.0522 15.7552 37.7706 16.28C37.489 16.792 37.3482 17.4576 37.3482 18.2768C37.3482 19.096 37.489 19.768 37.7706 20.2928C38.0522 20.8048 38.4106 21.1888 38.8458 21.4448C39.2938 21.688 39.7418 21.8096 40.1898 21.8096ZM49.0748 23C48.4732 23 48.006 22.9424 47.6732 22.8272C47.3532 22.6992 47.1292 22.4624 47.0012 22.1168C46.886 21.7712 46.8284 21.272 46.8284 20.6192V10.1936H48.4412V20.3504C48.4412 20.8368 48.4924 21.1632 48.5948 21.3296C48.6972 21.496 48.9724 21.5792 49.4204 21.5792H49.7852V23H49.0748ZM52.7171 11.672C52.3971 11.672 52.1155 11.5568 51.8723 11.3264C51.6419 11.0832 51.5267 10.7952 51.5267 10.4624C51.5267 10.1296 51.6419 9.848 51.8723 9.6176C52.1155 9.3872 52.3971 9.272 52.7171 9.272C53.0499 9.272 53.3315 9.3872 53.5619 9.6176C53.8051 9.848 53.9267 10.1296 53.9267 10.4624C53.9267 10.7952 53.8051 11.0832 53.5619 11.3264C53.3315 11.5568 53.0499 11.672 52.7171 11.672ZM51.9107 23V14.7632H50.5859V13.4768H53.5235V23H51.9107ZM60.3648 23.2304C59.8144 23.2304 59.2704 23.1344 58.7328 22.9424C58.1952 22.7504 57.7024 22.456 57.2544 22.0592C56.8192 21.6496 56.4672 21.1312 56.1984 20.504C55.9296 19.8768 55.7952 19.1344 55.7952 18.2768C55.7952 17.4192 55.9296 16.6768 56.1984 16.0496C56.4672 15.4224 56.8192 14.9104 57.2544 14.5136C57.7024 14.104 58.1952 13.8032 58.7328 13.6112C59.2704 13.4192 59.8144 13.3232 60.3648 13.3232C60.9152 13.3232 61.4592 13.4192 61.9968 13.6112C62.5472 13.8032 63.04 14.104 63.4752 14.5136C63.9232 14.9104 64.2752 15.4224 64.5312 16.0496C64.8 16.6768 64.9344 17.4192 64.9344 18.2768C64.9344 19.1344 64.8 19.8768 64.5312 20.504C64.2752 21.1312 63.9232 21.6496 63.4752 22.0592C63.04 22.456 62.5472 22.7504 61.9968 22.9424C61.4592 23.1344 60.9152 23.2304 60.3648 23.2304ZM60.3648 21.8096C60.8256 21.8096 61.2736 21.688 61.7088 21.4448C62.144 21.1888 62.5024 20.8048 62.784 20.2928C63.0656 19.768 63.2064 19.096 63.2064 18.2768C63.2064 17.4576 63.0656 16.792 62.784 16.28C62.5024 15.7552 62.144 15.3712 61.7088 15.128C61.2736 14.872 60.8256 14.744 60.3648 14.744C59.9168 14.744 59.4688 14.872 59.0208 15.128C58.5856 15.3712 58.2272 15.7552 57.9456 16.28C57.664 16.792 57.5232 17.4576 57.5232 18.2768C57.5232 19.096 57.664 19.768 57.9456 20.2928C58.2272 20.8048 58.5856 21.1888 59.0208 21.4448C59.4688 21.688 59.9168 21.8096 60.3648 21.8096Z" fill="black"/>
</g>
<defs>
<clipPath id="clip0_376_715">
<rect width="78" height="23" fill="white"/>
</clipPath>
</defs>
</svg>
