<svg width="78" height="26" viewBox="0 0 78 26" fill="none" xmlns="http://www.w3.org/2000/svg">
<rect width="78" height="26" fill="white"/>
<path d="M10 7H16.5C17.4849 7 18.4602 7.17581 19.3701 7.51738C20.2801 7.85896 21.1069 8.35961 21.8033 8.99076C22.4997 9.62191 23.0522 10.3712 23.4291 11.1958C23.806 12.0205 24 12.9043 24 13.7969V17.3125H17.25V17.3318C16.7853 17.3318 16.3251 17.419 15.8957 17.5884C15.4664 17.7578 15.0763 18.006 14.7476 18.3191C14.419 18.6321 14.1584 19.0037 13.9805 19.4126C13.8698 19.6672 13.7926 19.9331 13.75 20.2044V22H10V20.7026C10 19.7957 10.1875 18.8977 10.5519 18.0599C10.9162 17.222 11.4503 16.4608 12.1235 15.8195C12.7967 15.1783 13.5959 14.6696 14.4755 14.3225C15.2781 14.0059 16.1332 13.8295 17 13.801V13.7969H20.1609C20.1609 13.3612 20.0662 12.9298 19.8822 12.5273C19.6982 12.1247 19.4286 11.759 19.0886 11.4509C18.7487 11.1428 18.3451 10.8985 17.901 10.7317C17.6245 10.628 17.3357 10.5555 17.041 10.5156H14.25V12.7284C13.7284 12.8154 13.2171 12.9567 12.7255 13.1507C11.8459 13.4977 11.0467 14.0064 10.3735 14.6476C10.2437 14.7712 10.1192 14.8992 10 15.0314V7Z" fill="#205CD0"/>
<path d="M31.2414 22V13.7632H29.6286V12.4768H31.2414V11.056C31.2414 10.4032 31.3054 9.8848 31.4334 9.5008C31.5614 9.1168 31.811 8.848 32.1822 8.6944C32.5534 8.528 33.091 8.4448 33.795 8.4448H34.8318V9.808H33.8334C33.4238 9.808 33.155 9.8912 33.027 10.0576C32.9118 10.224 32.8542 10.5504 32.8542 11.0368V12.4768H34.8318V13.7632H32.8542V22H31.2414ZM40.1898 22.2304C39.6394 22.2304 39.0954 22.1344 38.5578 21.9424C38.0202 21.7504 37.5274 21.456 37.0794 21.0592C36.6442 20.6496 36.2922 20.1312 36.0234 19.504C35.7546 18.8768 35.6202 18.1344 35.6202 17.2768C35.6202 16.4192 35.7546 15.6768 36.0234 15.0496C36.2922 14.4224 36.6442 13.9104 37.0794 13.5136C37.5274 13.104 38.0202 12.8032 38.5578 12.6112C39.0954 12.4192 39.6394 12.3232 40.1898 12.3232C40.7402 12.3232 41.2842 12.4192 41.8218 12.6112C42.3722 12.8032 42.865 13.104 43.3002 13.5136C43.7482 13.9104 44.1002 14.4224 44.3562 15.0496C44.625 15.6768 44.7594 16.4192 44.7594 17.2768C44.7594 18.1344 44.625 18.8768 44.3562 19.504C44.1002 20.1312 43.7482 20.6496 43.3002 21.0592C42.865 21.456 42.3722 21.7504 41.8218 21.9424C41.2842 22.1344 40.7402 22.2304 40.1898 22.2304ZM40.1898 20.8096C40.6506 20.8096 41.0986 20.688 41.5338 20.4448C41.969 20.1888 42.3274 19.8048 42.609 19.2928C42.8906 18.768 43.0314 18.096 43.0314 17.2768C43.0314 16.4576 42.8906 15.792 42.609 15.28C42.3274 14.7552 41.969 14.3712 41.5338 14.128C41.0986 13.872 40.6506 13.744 40.1898 13.744C39.7418 13.744 39.2938 13.872 38.8458 14.128C38.4106 14.3712 38.0522 14.7552 37.7706 15.28C37.489 15.792 37.3482 16.4576 37.3482 17.2768C37.3482 18.096 37.489 18.768 37.7706 19.2928C38.0522 19.8048 38.4106 20.1888 38.8458 20.4448C39.2938 20.688 39.7418 20.8096 40.1898 20.8096ZM49.0748 22C48.4732 22 48.006 21.9424 47.6732 21.8272C47.3532 21.6992 47.1292 21.4624 47.0012 21.1168C46.886 20.7712 46.8284 20.272 46.8284 19.6192V9.1936H48.4412V19.3504C48.4412 19.8368 48.4924 20.1632 48.5948 20.3296C48.6972 20.496 48.9724 20.5792 49.4204 20.5792H49.7852V22H49.0748ZM52.7171 10.672C52.3971 10.672 52.1155 10.5568 51.8723 10.3264C51.6419 10.0832 51.5267 9.7952 51.5267 9.4624C51.5267 9.1296 51.6419 8.848 51.8723 8.6176C52.1155 8.3872 52.3971 8.272 52.7171 8.272C53.0499 8.272 53.3315 8.3872 53.5619 8.6176C53.8051 8.848 53.9267 9.1296 53.9267 9.4624C53.9267 9.7952 53.8051 10.0832 53.5619 10.3264C53.3315 10.5568 53.0499 10.672 52.7171 10.672ZM51.9107 22V13.7632H50.5859V12.4768H53.5235V22H51.9107ZM60.3648 22.2304C59.8144 22.2304 59.2704 22.1344 58.7328 21.9424C58.1952 21.7504 57.7024 21.456 57.2544 21.0592C56.8192 20.6496 56.4672 20.1312 56.1984 19.504C55.9296 18.8768 55.7952 18.1344 55.7952 17.2768C55.7952 16.4192 55.9296 15.6768 56.1984 15.0496C56.4672 14.4224 56.8192 13.9104 57.2544 13.5136C57.7024 13.104 58.1952 12.8032 58.7328 12.6112C59.2704 12.4192 59.8144 12.3232 60.3648 12.3232C60.9152 12.3232 61.4592 12.4192 61.9968 12.6112C62.5472 12.8032 63.04 13.104 63.4752 13.5136C63.9232 13.9104 64.2752 14.4224 64.5312 15.0496C64.8 15.6768 64.9344 16.4192 64.9344 17.2768C64.9344 18.1344 64.8 18.8768 64.5312 19.504C64.2752 20.1312 63.9232 20.6496 63.4752 21.0592C63.04 21.456 62.5472 21.7504 61.9968 21.9424C61.4592 22.1344 60.9152 22.2304 60.3648 22.2304ZM60.3648 20.8096C60.8256 20.8096 61.2736 20.688 61.7088 20.4448C62.144 20.1888 62.5024 19.8048 62.784 19.2928C63.0656 18.768 63.2064 18.096 63.2064 17.2768C63.2064 16.4576 63.0656 15.792 62.784 15.28C62.5024 14.7552 62.144 14.3712 61.7088 14.128C61.2736 13.872 60.8256 13.744 60.3648 13.744C59.9168 13.744 59.4688 13.872 59.0208 14.128C58.5856 14.3712 58.2272 14.7552 57.9456 15.28C57.664 15.792 57.5232 16.4576 57.5232 17.2768C57.5232 18.096 57.664 18.768 57.9456 19.2928C58.2272 19.8048 58.5856 20.1888 59.0208 20.4448C59.4688 20.688 59.9168 20.8096 60.3648 20.8096Z" fill="black"/>
</svg>
